<svg preserveAspectRatio="none" width="100%" height="100%" overflow="visible" style="display: block;" viewBox="0 0 24 24" fill="none" xmlns="http://www.w3.org/2000/svg">
<g id="bling_fill">
<g id="Vector">
</g>
<path id="Vector_2" d="M10.077 2.614C10.415 1.854 11.456 1.817 11.864 2.5L11.923 2.614L12.965 4.959C13.8749 7.00592 15.388 8.72627 17.302 9.89L17.624 10.079L19.474 11.119C19.6211 11.2013 19.7452 11.3192 19.8351 11.4618C19.9249 11.6043 19.9777 11.7672 19.9885 11.9354C19.9994 12.1036 19.9679 12.2718 19.8971 12.4247C19.8263 12.5777 19.7183 12.7105 19.583 12.811L19.475 12.881L17.624 13.921C15.6714 15.0194 14.1007 16.6877 13.122 18.703L12.965 19.041L11.923 21.386C11.585 22.146 10.544 22.183 10.136 21.5L10.077 21.386L9.035 19.041C8.12513 16.9941 6.61202 15.2737 4.698 14.11L4.376 13.921L2.526 12.881C2.37893 12.7987 2.2548 12.6808 2.16493 12.5382C2.07506 12.3957 2.0223 12.2328 2.01147 12.0646C2.00063 11.8964 2.03206 11.7282 2.10289 11.5753C2.17373 11.4223 2.28171 11.2895 2.417 11.189L2.525 11.119L4.376 10.079C6.32862 8.98065 7.89932 7.31226 8.878 5.297L9.035 4.959L10.077 2.614ZM19.221 2.121C19.7174 3.2486 20.5639 4.18626 21.635 4.795C21.795 4.885 21.795 5.115 21.635 5.205C20.5633 5.81383 19.7165 6.75188 19.22 7.88C19.201 7.92247 19.1701 7.95853 19.1311 7.98384C19.092 8.00914 19.0465 8.02261 19 8.02261C18.9535 8.02261 18.9079 8.00914 18.8689 7.98384C18.8299 7.95853 18.799 7.92247 18.78 7.88C18.2834 6.75225 17.4365 5.81457 16.365 5.206C16.3288 5.18537 16.2988 5.15554 16.2779 5.11954C16.2569 5.08353 16.2459 5.04264 16.2459 5.001C16.2459 4.95936 16.2569 4.91847 16.2779 4.88246C16.2988 4.84646 16.3288 4.81663 16.365 4.796C17.4368 4.18691 18.2837 3.24849 18.78 2.12C18.799 2.07753 18.8299 2.04147 18.8689 2.01616C18.9079 1.99086 18.9535 1.97739 19 1.97739C19.0465 1.97739 19.092 1.99086 19.1311 2.01616C19.1701 2.04147 19.201 2.07753 19.22 2.12L19.221 2.121Z" fill="var(--fill-0, #0A4DFE)"/>
</g>
</svg>
