<svg preserveAspectRatio="none" width="100%" height="100%" overflow="visible" style="display: block;" viewBox="0 0 32 32" fill="none" xmlns="http://www.w3.org/2000/svg">
<g id="question_line">
<g id="Vector">
</g>
<path id="Vector_2" d="M16 2.66667C23.364 2.66667 29.3333 8.636 29.3333 16C29.3333 23.364 23.364 29.3333 16 29.3333C8.636 29.3333 2.66667 23.364 2.66667 16C2.66667 8.636 8.636 2.66667 16 2.66667ZM16 5.33333C13.171 5.33333 10.4579 6.45714 8.45753 8.45753C6.45714 10.4579 5.33333 13.171 5.33333 16C5.33333 18.829 6.45714 21.5421 8.45753 23.5425C10.4579 25.5429 13.171 26.6667 16 26.6667C18.829 26.6667 21.5421 25.5429 23.5425 23.5425C25.5429 21.5421 26.6667 18.829 26.6667 16C26.6667 13.171 25.5429 10.4579 23.5425 8.45753C21.5421 6.45714 18.829 5.33333 16 5.33333ZM16 21.3333C16.3536 21.3333 16.6928 21.4738 16.9428 21.7239C17.1929 21.9739 17.3333 22.313 17.3333 22.6667C17.3333 23.0203 17.1929 23.3594 16.9428 23.6095C16.6928 23.8595 16.3536 24 16 24C15.6464 24 15.3072 23.8595 15.0572 23.6095C14.8071 23.3594 14.6667 23.0203 14.6667 22.6667C14.6667 22.313 14.8071 21.9739 15.0572 21.7239C15.3072 21.4738 15.6464 21.3333 16 21.3333ZM16 8.66667C17.123 8.6667 18.211 9.05781 19.077 9.7728C19.9431 10.4878 20.5331 11.482 20.7457 12.5848C20.9584 13.6875 20.7804 14.8298 20.2424 15.8156C19.7043 16.8014 18.8398 17.569 17.7973 17.9867C17.6437 18.045 17.5048 18.1365 17.3907 18.2547C17.332 18.3213 17.3227 18.4067 17.324 18.4947L17.3333 18.6667C17.333 19.0065 17.2028 19.3334 16.9695 19.5805C16.7362 19.8276 16.4174 19.9763 16.0781 19.9962C15.7389 20.0161 15.4048 19.9058 15.1442 19.6876C14.8836 19.4695 14.7161 19.1601 14.676 18.8227L14.6667 18.6667V18.3333C14.6667 16.796 15.9067 15.8733 16.8053 15.512C17.1711 15.3659 17.4901 15.123 17.7282 14.8093C17.9663 14.4956 18.1145 14.123 18.1568 13.7314C18.1991 13.3399 18.1339 12.9442 17.9683 12.5869C17.8027 12.2295 17.5428 11.9241 17.2167 11.7033C16.8906 11.4825 16.5105 11.3547 16.1172 11.3337C15.7239 11.3126 15.3324 11.3991 14.9845 11.5838C14.6367 11.7685 14.3457 12.0445 14.1429 12.3821C13.9401 12.7197 13.8331 13.1062 13.8333 13.5C13.8333 13.8536 13.6929 14.1928 13.4428 14.4428C13.1928 14.6929 12.8536 14.8333 12.5 14.8333C12.1464 14.8333 11.8072 14.6929 11.5572 14.4428C11.3071 14.1928 11.1667 13.8536 11.1667 13.5C11.1667 12.2181 11.6759 10.9887 12.5823 10.0823C13.4887 9.17589 14.7181 8.66667 16 8.66667Z" fill="var(--fill-0, #09244B)"/>
</g>
</svg>
