<svg preserveAspectRatio="none" width="100%" height="100%" overflow="visible" style="display: block;" viewBox="0 0 24 24" fill="none" xmlns="http://www.w3.org/2000/svg">
<g id="refresh_1_line">
<g id="Vector">
</g>
<path id="Vector_2" fill-rule="evenodd" clip-rule="evenodd" d="M9.93 19.728C11.681 20.1969 13.5394 20.0575 15.2009 19.3327C16.8624 18.6078 18.2286 17.3405 19.076 15.738C19.1372 15.6218 19.2207 15.5188 19.3217 15.4348C19.4227 15.3508 19.5393 15.2876 19.6647 15.2487C19.7902 15.2098 19.9221 15.196 20.0529 15.208C20.1836 15.2201 20.3108 15.2578 20.427 15.319C20.5432 15.3802 20.6462 15.4637 20.7302 15.5647C20.8142 15.6657 20.8774 15.7823 20.9163 15.9077C20.9552 16.0332 20.969 16.1651 20.957 16.2959C20.9449 16.4266 20.9072 16.5538 20.846 16.67C18.716 20.71 14.01 22.891 9.412 21.66C4.077 20.23 0.912 14.747 2.341 9.412C3.771 4.077 9.254 0.912 14.588 2.341C16.7014 2.90722 18.5709 4.15077 19.9101 5.8811C21.2492 7.61143 21.984 9.73309 22.002 11.921C22.009 12.824 21.007 13.323 20.289 12.841L17.616 11.039C16.608 10.359 17.284 8.788 18.47 9.053L19.528 9.289C19.0616 7.9947 18.2694 6.84254 17.2277 5.94382C16.1861 5.04509 14.9303 4.43018 13.5817 4.15847C12.233 3.88676 10.8371 3.96744 9.52869 4.39272C8.22032 4.81799 7.04372 5.57349 6.11257 6.58624C5.18141 7.59898 4.52717 8.83475 4.21302 10.1742C3.89888 11.5136 3.93546 12.9114 4.31923 14.2325C4.70299 15.5536 5.42098 16.7535 6.40383 17.7161C7.38668 18.6788 8.60117 19.3717 9.93 19.728Z" fill="var(--fill-0, black)"/>
</g>
</svg>
