<svg preserveAspectRatio="none" width="100%" height="100%" overflow="visible" style="display: block;" viewBox="0 0 36 36" fill="none" xmlns="http://www.w3.org/2000/svg">
<g id="alert_fill">
<g id="Vector">
</g>
<path id="Vector_2" d="M19.9485 4.722L32.8995 27.153C33.097 27.495 33.2009 27.883 33.2009 28.278C33.2009 28.6729 33.097 29.0609 32.8995 29.403C32.702 29.745 32.418 30.0291 32.076 30.2265C31.7339 30.424 31.346 30.528 30.951 30.528H5.049C4.65405 30.528 4.26606 30.424 3.92402 30.2265C3.58198 30.0291 3.29796 29.745 3.10049 29.403C2.90301 29.0609 2.79905 28.6729 2.79906 28.278C2.79906 27.883 2.90302 27.495 3.1005 27.153L16.0515 4.722C16.917 3.222 19.0815 3.222 19.9485 4.722ZM18 22.5C17.6022 22.5 17.2206 22.658 16.9393 22.9393C16.658 23.2206 16.5 23.6022 16.5 24C16.5 24.3978 16.658 24.7794 16.9393 25.0607C17.2206 25.342 17.6022 25.5 18 25.5C18.3978 25.5 18.7794 25.342 19.0607 25.0607C19.342 24.7794 19.5 24.3978 19.5 24C19.5 23.6022 19.342 23.2206 19.0607 22.9393C18.7794 22.658 18.3978 22.5 18 22.5ZM18 12C17.6326 12 17.278 12.1349 17.0034 12.3791C16.7289 12.6232 16.5535 12.9596 16.5105 13.3245L16.5 13.5V19.5C16.5004 19.8823 16.6468 20.25 16.9093 20.5281C17.1717 20.8061 17.5304 20.9734 17.9121 20.9958C18.2938 21.0182 18.6696 20.894 18.9627 20.6486C19.2559 20.4032 19.4443 20.0551 19.4895 19.6755L19.5 19.5V13.5C19.5 13.1022 19.342 12.7206 19.0607 12.4393C18.7794 12.158 18.3978 12 18 12Z" fill="var(--fill-0, #FF930C)"/>
</g>
</svg>
