<svg preserveAspectRatio="none" width="100%" height="100%" overflow="visible" style="display: block;" viewBox="0 0 32 32" fill="none" xmlns="http://www.w3.org/2000/svg">
<g id="notification_line">
<g id="Vector">
</g>
<path id="Vector_2" fill-rule="evenodd" clip-rule="evenodd" d="M6.66667 12C6.66667 9.52465 7.65 7.15068 9.40034 5.40034C11.1507 3.65 13.5246 2.66667 16 2.66667C18.4754 2.66667 20.8493 3.65 22.5997 5.40034C24.35 7.15068 25.3333 9.52465 25.3333 12V17.0187L27.7627 21.8773C27.8745 22.101 27.9273 22.3495 27.9161 22.5992C27.9048 22.849 27.8299 23.0918 27.6985 23.3045C27.567 23.5171 27.3834 23.6927 27.165 23.8144C26.9466 23.9362 26.7007 24 26.4507 24H21.1653C20.8687 25.1443 20.2006 26.1578 19.2657 26.8812C18.3308 27.6047 17.1821 27.9973 16 27.9973C14.8179 27.9973 13.6692 27.6047 12.7343 26.8812C11.7994 26.1578 11.1312 25.1443 10.8347 24H5.54933C5.2993 24 5.05342 23.9362 4.83502 23.8144C4.61663 23.6927 4.43298 23.5171 4.30153 23.3045C4.17007 23.0918 4.09517 22.849 4.08393 22.5992C4.0727 22.3495 4.1255 22.101 4.23733 21.8773L6.66667 17.0187V12ZM13.6907 24C13.9247 24.4054 14.2614 24.742 14.6667 24.976C15.0721 25.21 15.5319 25.3332 16 25.3332C16.4681 25.3332 16.9279 25.21 17.3333 24.976C17.7386 24.742 18.0753 24.4054 18.3093 24H13.6907ZM16 5.33333C14.2319 5.33333 12.5362 6.03571 11.286 7.28595C10.0357 8.5362 9.33333 10.2319 9.33333 12V17.0187C9.3333 17.4324 9.23699 17.8405 9.052 18.2107L7.492 21.3333H24.5093L22.9493 18.2107C22.7639 17.8406 22.6672 17.4325 22.6667 17.0187V12C22.6667 10.2319 21.9643 8.5362 20.714 7.28595C19.4638 6.03571 17.7681 5.33333 16 5.33333Z" fill="var(--fill-0, #09244B)"/>
</g>
</svg>
