<svg preserveAspectRatio="none" width="100%" height="100%" overflow="visible" style="display: block;" viewBox="0 0 80 80" fill="none" xmlns="http://www.w3.org/2000/svg">
<g id="warning_fill">
<g id="Vector">
</g>
<path id="Vector_2" d="M40 6.66667C58.41 6.66667 73.3333 21.59 73.3333 40C73.3333 58.41 58.41 73.3333 40 73.3333C21.59 73.3333 6.66667 58.41 6.66667 40C6.66667 21.59 21.59 6.66667 40 6.66667ZM40 50C39.1159 50 38.2681 50.3512 37.643 50.9763C37.0179 51.6014 36.6667 52.4493 36.6667 53.3333C36.6667 54.2174 37.0179 55.0652 37.643 55.6903C38.2681 56.3155 39.1159 56.6667 40 56.6667C40.884 56.6667 41.7319 56.3155 42.357 55.6903C42.9821 55.0652 43.3333 54.2174 43.3333 53.3333C43.3333 52.4493 42.9821 51.6014 42.357 50.9763C41.7319 50.3512 40.884 50 40 50ZM40 20C39.1835 20.0001 38.3955 20.2999 37.7854 20.8424C37.1753 21.3849 36.7855 22.1325 36.69 22.9433L36.6667 23.3333V43.3333C36.6676 44.1829 36.9929 45.0001 37.5762 45.6179C38.1594 46.2357 38.9565 46.6074 39.8046 46.6572C40.6528 46.707 41.4879 46.4311 42.1394 45.8858C42.7909 45.3405 43.2096 44.567 43.31 43.7233L43.3333 43.3333V23.3333C43.3333 22.4493 42.9821 21.6014 42.357 20.9763C41.7319 20.3512 40.884 20 40 20Z" fill="var(--fill-0, #D41418)"/>
</g>
</svg>
