<svg preserveAspectRatio="none" width="100%" height="100%" overflow="visible" style="display: block;" viewBox="0 0 32 32" fill="none" xmlns="http://www.w3.org/2000/svg">
<g id="document_fill">
<g id="Vector">
</g>
<path id="Vector_2" d="M24 2.66667C24.7072 2.66667 25.3855 2.94762 25.8856 3.44772C26.3857 3.94781 26.6667 4.62609 26.6667 5.33333V26.6667C26.6667 27.3739 26.3857 28.0522 25.8856 28.5523C25.3855 29.0524 24.7072 29.3333 24 29.3333H8C7.29276 29.3333 6.61448 29.0524 6.11438 28.5523C5.61428 28.0522 5.33333 27.3739 5.33333 26.6667V5.33333C5.33333 4.62609 5.61428 3.94781 6.11438 3.44772C6.61448 2.94762 7.29276 2.66667 8 2.66667H24ZM16 17.3333H12C11.6464 17.3333 11.3072 17.4738 11.0572 17.7239C10.8071 17.9739 10.6667 18.313 10.6667 18.6667C10.6667 19.0203 10.8071 19.3594 11.0572 19.6095C11.3072 19.8595 11.6464 20 12 20H16C16.3536 20 16.6928 19.8595 16.9428 19.6095C17.1929 19.3594 17.3333 19.0203 17.3333 18.6667C17.3333 18.313 17.1929 17.9739 16.9428 17.7239C16.6928 17.4738 16.3536 17.3333 16 17.3333ZM20 10.6667H12C11.6602 10.667 11.3333 10.7972 11.0862 11.0305C10.8391 11.2638 10.6904 11.5826 10.6704 11.9219C10.6505 12.2611 10.7609 12.5952 10.979 12.8558C11.1971 13.1164 11.5065 13.2839 11.844 13.324L12 13.3333H20C20.3398 13.333 20.6667 13.2028 20.9138 12.9695C21.1609 12.7362 21.3096 12.4174 21.3296 12.0781C21.3495 11.7389 21.2391 11.4048 21.021 11.1442C20.8029 10.8836 20.4935 10.7161 20.156 10.676L20 10.6667Z" fill="var(--fill-0, #1B5AFC)"/>
</g>
</svg>
