<svg preserveAspectRatio="none" width="100%" height="100%" overflow="visible" style="display: block;" viewBox="0 0 32 32" fill="none" xmlns="http://www.w3.org/2000/svg">
<g id="chat_1_line">
<g id="Vector">
</g>
<path id="Vector_2" d="M16 2.66667C23.364 2.66667 29.3333 8.636 29.3333 16C29.3333 23.364 23.364 29.3333 16 29.3333H5.33333C4.62609 29.3333 3.94781 29.0524 3.44772 28.5523C2.94762 28.0522 2.66667 27.3739 2.66667 26.6667V16C2.66667 8.636 8.636 2.66667 16 2.66667ZM16 5.33333C13.171 5.33333 10.4579 6.45714 8.45753 8.45753C6.45714 10.4579 5.33333 13.171 5.33333 16V26.6667H16C18.829 26.6667 21.5421 25.5429 23.5425 23.5425C25.5429 21.5421 26.6667 18.829 26.6667 16C26.6667 13.171 25.5429 10.4579 23.5425 8.45753C21.5421 6.45714 18.829 5.33333 16 5.33333ZM16 18.6667C16.3398 18.667 16.6667 18.7972 16.9138 19.0305C17.1609 19.2638 17.3096 19.5826 17.3296 19.9219C17.3495 20.2611 17.2391 20.5952 17.021 20.8558C16.8029 21.1164 16.4935 21.2839 16.156 21.324L16 21.3333H12C11.6602 21.333 11.3333 21.2028 11.0862 20.9695C10.8391 20.7362 10.6904 20.4174 10.6704 20.0781C10.6505 19.7389 10.7609 19.4048 10.979 19.1442C11.1971 18.8836 11.5065 18.7161 11.844 18.676L12 18.6667H16ZM20 13.3333C20.3536 13.3333 20.6928 13.4738 20.9428 13.7239C21.1929 13.9739 21.3333 14.313 21.3333 14.6667C21.3333 15.0203 21.1929 15.3594 20.9428 15.6095C20.6928 15.8595 20.3536 16 20 16H12C11.6464 16 11.3072 15.8595 11.0572 15.6095C10.8071 15.3594 10.6667 15.0203 10.6667 14.6667C10.6667 14.313 10.8071 13.9739 11.0572 13.7239C11.3072 13.4738 11.6464 13.3333 12 13.3333H20Z" fill="var(--fill-0, #151F3E)"/>
</g>
</svg>
