<svg width="46" height="46" fill="currentColor" viewBox="0 0 24 24" xmlns="http://www.w3.org/2000/svg">
  <path d="m22.56 16.303-7.67-12.72a3.43 3.43 0 0 0-5.78 0l-7.67 12.72a3 3 0 0 0-.05 3 3.37 3.37 0 0 0 2.94 1.7h15.34a3.37 3.37 0 0 0 2.94-1.66 3 3 0 0 0-.05-3.04Zm-1.7 2.05a1.31 1.31 0 0 1-1.19.65H4.33a1.31 1.31 0 0 1-1.19-.65 1 1 0 0 1 0-1l7.68-12.73a1.48 1.48 0 0 1 2.36 0l7.67 12.72a1 1 0 0 1 .01 1.01Z"></path>
  <path d="M12 17a1 1 0 1 0 0-2 1 1 0 0 0 0 2Z"></path>
  <path d="M12 8a1 1 0 0 0-1 1v4a1 1 0 0 0 2 0V9a1 1 0 0 0-1-1Z"></path>
</svg>
